<?xml version="1.0" encoding="UTF-8" standalone="no"?>
<svg width="28px" height="28px" viewBox="0 0 28 28" version="1.1" xmlns="http://www.w3.org/2000/svg" xmlns:xlink="http://www.w3.org/1999/xlink" xmlns:sketch="http://www.bohemiancoding.com/sketch/ns">
    <!-- Generator: Sketch 3.0.3 (7892) - http://www.bohemiancoding.com/sketch -->
    <title>info</title>
    <desc>Created with Sketch.</desc>
    <defs></defs>
    <g id="Page-2" stroke="none" stroke-width="1" fill="none" fill-rule="evenodd" sketch:type="MSPage">
        <g id="Oval-18" sketch:type="MSLayerGroup" fill="#FFFFFF">
            <path d="M14.4827586,28 C21.7319865,28 28,21.7319865 28,14.4827586 C28,6.2680135 21.7319865,0 14.4827586,0 C6.2680135,0 0,6.2680135 0,14.4827586 C0,21.7319865 6.2680135,28 14.4827586,28 Z M12.5644531,18.3581731 L15.4746094,18.3581731 L15.4746094,21.0935998 L12.5644531,21.0935998 L12.5644531,18.3581731 Z M10.9433594,7.71935096 C11.7115924,7.23978126 12.6555934,7 13.7753906,7 C15.2467521,7 16.4690707,7.34074178 17.4423828,8.02223558 C18.415695,8.70372937 18.9023438,9.71333466 18.9023438,11.0510817 C18.9023438,11.8713983 18.6907573,12.562347 18.2675781,13.1239483 C18.0201811,13.4646952 17.5449254,13.9000875 16.8417969,14.4301382 L16.1484375,14.9507212 C15.7708314,15.2346769 15.5201829,15.5659536 15.3964844,15.9445613 C15.318359,16.1843462 15.2760417,16.5566381 15.2695312,17.0614483 L12.6328125,17.0614483 C12.6718752,15.9950367 12.7760408,15.2583404 12.9453125,14.8513371 C13.1145842,14.4443339 13.5507777,13.9758139 14.2539062,13.4457632 L14.9667969,12.90625 C15.201173,12.7358766 15.3899732,12.5497306 15.5332031,12.3478065 C15.7936211,12.0007495 15.9238281,11.6189925 15.9238281,11.202524 C15.9238281,10.7229543 15.7789728,10.2859845 15.4892578,9.89160156 C15.1995428,9.49721858 14.6705768,9.30003005 13.9023438,9.30003005 C13.1471316,9.30003005 12.6116552,9.54296632 12.2958984,10.0288462 C11.9801417,10.514726 11.8222656,11.0195286 11.8222656,11.5432692 L9,11.5432692 C9.07812539,9.74488284 9.72590537,8.47025616 10.9433594,7.71935096 Z" sketch:type="MSShapeGroup"></path>
        </g>
    </g>
</svg>