<?xml version="1.0" encoding="UTF-8" standalone="no"?>
<svg width="14px" height="14px" viewBox="0 0 14 14" version="1.1" xmlns="http://www.w3.org/2000/svg" xmlns:xlink="http://www.w3.org/1999/xlink" xmlns:sketch="http://www.bohemiancoding.com/sketch/ns">
    <!-- Generator: Sketch 3.0.3 (7892) - http://www.bohemiancoding.com/sketch -->
    <title>info</title>
    <desc>Created with Sketch.</desc>
    <defs></defs>
    <g id="Page-2" stroke="none" stroke-width="1" fill="none" fill-rule="evenodd" sketch:type="MSPage">
        <g id="Oval-18" sketch:type="MSLayerGroup" fill="#FFFFFF">
            <path d="M7.24137931,14 C10.8659932,14 14,10.8659932 14,7.24137931 C14,3.13400675 10.8659932,0 7.24137931,0 C3.13400675,0 0,3.13400675 0,7.24137931 C0,10.8659932 3.13400675,14 7.24137931,14 Z M6.28222656,9.17908654 L7.73730469,9.17908654 L7.73730469,10.5467999 L6.28222656,10.5467999 L6.28222656,9.17908654 Z M5.47167969,3.85967548 C5.85579619,3.61989063 6.32779668,3.5 6.88769531,3.5 C7.62337607,3.5 8.23453533,3.67037089 8.72119141,4.01111779 C9.20784749,4.35186468 9.45117188,4.85666733 9.45117188,5.52554087 C9.45117188,5.93569917 9.34537866,6.28117348 9.13378906,6.56197416 C9.01009053,6.73234761 8.7724627,6.95004375 8.42089844,7.21506911 L8.07421875,7.47536058 C7.88541572,7.61733845 7.76009146,7.78297682 7.69824219,7.97228065 C7.65917949,8.09217308 7.63802085,8.27831905 7.63476562,8.53072416 L6.31640625,8.53072416 C6.3359376,7.99751837 6.38802041,7.62917019 6.47265625,7.42566857 C6.55729209,7.22216695 6.77538887,6.98790697 7.12695312,6.72288161 L7.48339844,6.453125 C7.60058652,6.36793828 7.69498662,6.27486529 7.76660156,6.17390325 C7.89681055,6.00037473 7.96191406,5.80949623 7.96191406,5.60126202 C7.96191406,5.36147717 7.8894864,5.14299227 7.74462891,4.94580078 C7.59977141,4.74860929 7.33528838,4.65001502 6.95117188,4.65001502 C6.57356582,4.65001502 6.30582761,4.77148316 6.14794922,5.01442308 C5.99007083,5.25736299 5.91113281,5.50976432 5.91113281,5.77163462 L4.5,5.77163462 C4.5390627,4.87244142 4.86295269,4.23512808 5.47167969,3.85967548 Z" sketch:type="MSShapeGroup"></path>
        </g>
    </g>
</svg>