<?xml version="1.0" encoding="UTF-8" standalone="no"?>
<svg width="21px" height="14px" viewBox="0 0 21 14" version="1.1" xmlns="http://www.w3.org/2000/svg" xmlns:xlink="http://www.w3.org/1999/xlink" xmlns:sketch="http://www.bohemiancoding.com/sketch/ns">
    <!-- Generator: Sketch 3.0.3 (7892) - http://www.bohemiancoding.com/sketch -->
    <title>joystick</title>
    <desc>Created with Sketch.</desc>
    <defs></defs>
    <g id="Page-2" stroke="none" stroke-width="1" fill="none" fill-rule="evenodd" sketch:type="MSPage">
        <g id="Star-1-+-stick" sketch:type="MSLayerGroup" fill="#FFFFFF">
            <path d="M10.5,1.56941019 C8.60930277,1.31100663 8.45608687,-0.0742594201 6.15110213,0.00311993507 C2.08536579,0.137326799 -2.84262825,12.5226075 2.02241869,13.9516175 C4.5111987,14.5139214 6.23377117,9.98931145 10.5,9.98931115 L10.5,1.56941019 Z M10.5,1.56941019 C12.3906972,1.31100663 12.5439131,-0.0742594201 14.8488979,0.00311993507 C18.9146342,0.137326799 23.8426283,12.5226075 18.9775813,13.9516175 C16.4888013,14.5139214 14.7662288,9.98931145 10.5,9.98931115 L10.5,1.56941019 Z M6.5,2.5 C4.84314575,2.5 3.5,3.84651712 3.5,5.5 C3.5,7.15685425 4.84651712,8.5 6.5,8.5 C8.15685425,8.5 9.5,7.15348288 9.5,5.5 C9.5,3.84314575 8.15348288,2.5 6.5,2.5 Z M6.5,7 C7.32842712,7 8,6.32842712 8,5.5 C8,4.67157288 7.32842712,4 6.5,4 C5.67157288,4 5,4.67157288 5,5.5 C5,6.32842712 5.67157288,7 6.5,7 Z M12.5,6.5 C13.0522847,6.5 13.5,6.05228475 13.5,5.5 C13.5,4.94771525 13.0522847,4.5 12.5,4.5 C11.9477153,4.5 11.5,4.94771525 11.5,5.5 C11.5,6.05228475 11.9477153,6.5 12.5,6.5 Z M14.5,8.5 C15.0522847,8.5 15.5,8.05228475 15.5,7.5 C15.5,6.94771525 15.0522847,6.5 14.5,6.5 C13.9477153,6.5 13.5,6.94771525 13.5,7.5 C13.5,8.05228475 13.9477153,8.5 14.5,8.5 Z M16.5,6.5 C17.0522847,6.5 17.5,6.05228475 17.5,5.5 C17.5,4.94771525 17.0522847,4.5 16.5,4.5 C15.9477153,4.5 15.5,4.94771525 15.5,5.5 C15.5,6.05228475 15.9477153,6.5 16.5,6.5 Z M14.5,4.5 C15.0522847,4.5 15.5,4.05228475 15.5,3.5 C15.5,2.94771525 15.0522847,2.5 14.5,2.5 C13.9477153,2.5 13.5,2.94771525 13.5,3.5 C13.5,4.05228475 13.9477153,4.5 14.5,4.5 Z" id="Path" sketch:type="MSShapeGroup"></path>
        </g>
    </g>
</svg>