<?xml version="1.0" encoding="UTF-8" standalone="no"?>
<svg width="30px" height="28px" viewBox="0 0 30 28" version="1.1" xmlns="http://www.w3.org/2000/svg" xmlns:xlink="http://www.w3.org/1999/xlink" xmlns:sketch="http://www.bohemiancoding.com/sketch/ns">
    <!-- Generator: Sketch 3.0.3 (7892) - http://www.bohemiancoding.com/sketch -->
    <title>refresh</title>
    <desc>Created with Sketch.</desc>
    <defs></defs>
    <g id="Page-2" stroke="none" stroke-width="1" fill="none" fill-rule="evenodd" sketch:type="MSPage">
        <g id="Oval-20" sketch:type="MSLayerGroup" fill="#FFFFFF">
            <path d="M2.03516405,13 C2.54791055,5.73472442 8.60424695,0 16,0 C23.7319865,0 30,6.2680135 30,14 C30,21.7319865 23.7319865,28 16,28 C12.3170858,28 8.96632155,26.5778974 6.46687545,24.2528604 L9.56408839,21.6539902 C11.3033523,23.1179801 13.5486727,24 16,24 C21.5228475,24 26,19.5228475 26,14 C26,8.4771525 21.5228475,4 16,4 C10.8146519,4 6.55109967,7.94667731 6.04937524,13 L6.23838334,13 L7.9703176,13 L3.9851588,19 L-1.77635684e-15,13 L2.03516405,13 Z" sketch:type="MSShapeGroup"></path>
        </g>
    </g>
</svg>