<?xml version="1.0" encoding="UTF-8" standalone="no"?>
<svg width="15px" height="14px" viewBox="0 0 15 14" version="1.1" xmlns="http://www.w3.org/2000/svg" xmlns:xlink="http://www.w3.org/1999/xlink" xmlns:sketch="http://www.bohemiancoding.com/sketch/ns">
    <!-- Generator: Sketch 3.0.3 (7892) - http://www.bohemiancoding.com/sketch -->
    <title>refresh</title>
    <desc>Created with Sketch.</desc>
    <defs></defs>
    <g id="Page-2" stroke="none" stroke-width="1" fill="none" fill-rule="evenodd" sketch:type="MSPage">
        <g id="Oval-20" sketch:type="MSLayerGroup" fill="#FFFFFF">
            <path d="M1.01758203,6.5 C1.27395527,2.86736221 4.30212347,0 8,0 C11.8659932,0 15,3.13400675 15,7 C15,10.8659932 11.8659932,14 8,14 C6.15854292,14 4.48316077,13.2889487 3.23343773,12.1264302 L4.78204419,10.8269951 C5.65167614,11.5589901 6.77433637,12 8,12 C10.7614237,12 13,9.76142375 13,7 C13,4.23857625 10.7614237,2 8,2 C5.40732595,2 3.27554984,3.97333865 3.02468762,6.5 L3.11919167,6.5 L3.9851588,6.5 L1.9925794,9.5 L-8.8817842e-16,6.5 L1.01758203,6.5 Z" sketch:type="MSShapeGroup"></path>
        </g>
    </g>
</svg>