<?xml version="1.0" encoding="UTF-8" standalone="no"?>
<svg width="28px" height="28px" viewBox="0 0 28 28" version="1.1" xmlns="http://www.w3.org/2000/svg" xmlns:xlink="http://www.w3.org/1999/xlink" xmlns:sketch="http://www.bohemiancoding.com/sketch/ns">
    <!-- Generator: Sketch 3.0.3 (7892) - http://www.bohemiancoding.com/sketch -->
    <title>search</title>
    <desc>Created with Sketch.</desc>
    <defs></defs>
    <g id="Page-2" stroke="none" stroke-width="1" fill="none" fill-rule="evenodd" sketch:type="MSPage">
        <g id="Rectangle-3-+-Rectangle-3" sketch:type="MSLayerGroup" fill="#FFFFFF">
            <path d="M17.4257991,20.3223508 L24.4646127,27.3611645 C25.2744218,28.1709735 26.5837678,28.1745872 27.4017687,27.3565863 C28.2141062,26.5442489 28.2108703,25.2239538 27.4063469,24.4194303 L20.3589841,17.3720675 C21.5646142,15.5925962 22.2688686,13.4457589 22.2688686,11.1344343 C22.2688686,4.98505603 17.2838125,0 11.1344343,0 C4.98505603,0 0,4.98505603 0,11.1344343 C0,17.2838125 4.98505603,22.2688686 11.1344343,22.2688686 C13.4690713,22.2688686 15.635886,21.5503362 17.4257991,20.3223508 L17.4257991,20.3223508 Z M11.1344343,18.5729664 C15.2426222,18.5729664 18.5729664,15.2426222 18.5729664,11.1344343 C18.5729664,7.02624643 15.2426222,3.69590214 11.1344343,3.69590214 C7.02624643,3.69590214 3.69590214,7.02624643 3.69590214,11.1344343 C3.69590214,15.2426222 7.02624643,18.5729664 11.1344343,18.5729664 Z" id="Rectangle-3" sketch:type="MSShapeGroup"></path>
        </g>
    </g>
</svg>