<?xml version="1.0" encoding="UTF-8" standalone="no"?>
<svg width="14px" height="14px" viewBox="0 0 14 14" version="1.1" xmlns="http://www.w3.org/2000/svg" xmlns:xlink="http://www.w3.org/1999/xlink" xmlns:sketch="http://www.bohemiancoding.com/sketch/ns">
    <!-- Generator: Sketch 3.0.3 (7892) - http://www.bohemiancoding.com/sketch -->
    <title>search</title>
    <desc>Created with Sketch.</desc>
    <defs></defs>
    <g id="Page-2" stroke="none" stroke-width="1" fill="none" fill-rule="evenodd" sketch:type="MSPage">
        <g id="Rectangle-3-+-Rectangle-3" sketch:type="MSLayerGroup" fill="#FFFFFF">
            <path d="M8.41245474,9.81079006 L11.8043165,13.2026518 C12.1986753,13.5970106 12.8335431,13.6015249 13.2284401,13.2066279 C13.620603,12.814465 13.6190409,12.1770811 13.224464,11.7825043 L9.82847507,8.38651534 C10.4105034,7.52746022 10.7504883,6.49105604 10.7504883,5.37524414 C10.7504883,2.40657878 8.34390951,0 5.37524414,0 C2.40657878,0 0,2.40657878 0,5.37524414 C0,8.34390951 2.40657878,10.7504883 5.37524414,10.7504883 C6.50231026,10.7504883 7.54835876,10.4036106 8.41245474,9.81079006 L8.41245474,9.81079006 Z M5.37524414,8.96625966 C7.35850725,8.96625966 8.96625966,7.35850725 8.96625966,5.37524414 C8.96625966,3.39198103 7.35850725,1.78422862 5.37524414,1.78422862 C3.39198103,1.78422862 1.78422862,3.39198103 1.78422862,5.37524414 C1.78422862,7.35850725 3.39198103,8.96625966 5.37524414,8.96625966 Z" id="Rectangle-3" sketch:type="MSShapeGroup"></path>
        </g>
    </g>
</svg>