<?xml version="1.0" encoding="UTF-8" standalone="no"?>
<svg width="30px" height="30px" viewBox="0 0 30 30" version="1.1" xmlns="http://www.w3.org/2000/svg" xmlns:xlink="http://www.w3.org/1999/xlink" xmlns:sketch="http://www.bohemiancoding.com/sketch/ns">
    <!-- Generator: Sketch 3.0.3 (7892) - http://www.bohemiancoding.com/sketch -->
    <title>settings</title>
    <desc>Created with Sketch.</desc>
    <defs></defs>
    <g id="Page-2" stroke="none" stroke-width="1" fill="none" fill-rule="evenodd" sketch:type="MSPage">
        <g id="Oval-13" sketch:type="MSLayerGroup" fill="#FFFFFF">
            <path d="M1.26256701,12.3009828 C1.04927835,13.3207315 0.9375,14.3854645 0.9375,15.4849138 C0.9375,16.2622047 1.00924292,17.0282647 1.14744895,17.7766344 C1.59319839,17.4593334 2.13844346,17.2727273 2.72727273,17.2727273 C4.23350386,17.2727273 5.45454545,18.4937689 5.45454545,20 C5.45454545,21.3570586 4.46338395,22.4826191 3.16548953,22.6922527 L3.16548953,22.6922527 C4.2348358,24.2846762 5.65037422,25.6660437 7.3264223,26.7315284 C7.57746818,25.4845504 8.67906529,24.5454545 10,24.5454545 C11.5062311,24.5454545 12.7272727,25.7664961 12.7272727,27.2727273 C12.7272727,27.8126515 12.5703763,28.3159307 12.2996889,28.7394594 L12.2996889,28.7394594 C13.3198308,28.9506271 14.3849994,29.0625 15.4849138,29.0625 C16.262462,29.0625 17.0287719,28.9907096 17.7773776,28.8535946 L17.7773776,28.8535946 C17.4596249,28.4076527 17.2727273,27.8620161 17.2727273,27.2727273 C17.2727273,25.7664961 18.4937689,24.5454545 20,24.5454545 C21.371186,24.5454545 22.5060288,25.55736 22.6985012,26.8751437 C24.3607959,25.792798 25.792798,24.3607959 26.8751437,22.6985012 L26.8751437,22.6985012 C25.55736,22.5060288 24.5454545,21.371186 24.5454545,20 C24.5454545,18.4937689 25.7664961,17.2727273 27.2727273,17.2727273 C27.8620161,17.2727273 28.4076527,17.4596249 28.8535946,17.7773776 C28.9907096,17.0287719 29.0625,16.262462 29.0625,15.4849138 C29.0625,14.3849994 28.9506271,13.3198308 28.7394594,12.2996889 L28.7394594,12.2996889 C28.3159307,12.5703763 27.8126515,12.7272727 27.2727273,12.7272727 C25.7664961,12.7272727 24.5454545,11.5062311 24.5454545,10 C24.5454545,8.67906529 25.4845504,7.57746818 26.7315284,7.3264223 C25.6660437,5.65037422 24.2846762,4.2348358 22.6922527,3.16548953 L22.6922527,3.16548953 C22.4826191,4.46338395 21.3570586,5.45454545 20,5.45454545 C18.4937689,5.45454545 17.2727273,4.23350386 17.2727273,2.72727273 C17.2727273,2.13844346 17.4593334,1.59319839 17.7766344,1.14744895 C17.0282647,1.00924292 16.2622047,0.9375 15.4849138,0.9375 C14.3854645,0.9375 13.3207315,1.04927835 12.3009828,1.26256701 C12.5708763,1.68567426 12.7272727,2.18820932 12.7272727,2.72727273 C12.7272727,4.23350386 11.5062311,5.45454545 10,5.45454545 C8.69450408,5.45454545 7.60324857,4.5372732 7.33557235,3.31206758 L7.33557235,3.31206758 C5.73105208,4.36486824 4.36486824,5.73105208 3.31206758,7.33557235 C4.5372732,7.60324857 5.45454545,8.69450408 5.45454545,10 C5.45454545,11.5062311 4.23350386,12.7272727 2.72727273,12.7272727 C2.18820932,12.7272727 1.68567426,12.5708763 1.26256701,12.3009828 L1.26256701,12.3009828 Z M15,20.9090909 C18.2635008,20.9090909 20.9090909,18.2635008 20.9090909,15 C20.9090909,11.7364992 18.2635008,9.09090909 15,9.09090909 C11.7364992,9.09090909 9.09090909,11.7364992 9.09090909,15 C9.09090909,18.2635008 11.7364992,20.9090909 15,20.9090909 Z" sketch:type="MSShapeGroup"></path>
        </g>
    </g>
</svg>