<?xml version="1.0" encoding="UTF-8" standalone="no"?>
<svg width="14px" height="14px" viewBox="0 0 14 14" version="1.1" xmlns="http://www.w3.org/2000/svg" xmlns:xlink="http://www.w3.org/1999/xlink" xmlns:sketch="http://www.bohemiancoding.com/sketch/ns">
    <!-- Generator: Sketch 3.0.3 (7892) - http://www.bohemiancoding.com/sketch -->
    <title>settings</title>
    <desc>Created with Sketch.</desc>
    <defs></defs>
    <g id="Page-2" stroke="none" stroke-width="1" fill="none" fill-rule="evenodd" sketch:type="MSPage">
        <g id="Oval-13" sketch:type="MSLayerGroup" fill="#FFFFFF">
            <path d="M0.589197939,5.74045864 C0.489663228,6.21634134 0.4375,6.71321675 0.4375,7.2262931 C0.4375,7.58902885 0.470980031,7.94652353 0.535476177,8.2957627 C0.743492583,8.14768894 0.99794028,8.06060606 1.27272727,8.06060606 C1.97563514,8.06060606 2.54545455,8.63042547 2.54545455,9.33333333 C2.54545455,9.96662735 2.08291251,10.4918889 1.47722845,10.5897179 L1.47722845,10.5897179 C1.97625671,11.3328489 2.6368413,11.977487 3.41899707,12.4747133 C3.53615182,11.8927902 4.05023047,11.4545455 4.66666667,11.4545455 C5.36957453,11.4545455 5.93939394,12.0243649 5.93939394,12.7272727 C5.93939394,12.9792374 5.86617563,13.214101 5.73985483,13.4117477 L5.73985483,13.4117477 C6.21592104,13.5102926 6.71299974,13.5625 7.2262931,13.5625 C7.58914893,13.5625 7.94676022,13.5289978 8.29610954,13.4650108 L8.29610954,13.4650108 C8.14782493,13.2569046 8.06060606,13.0022742 8.06060606,12.7272727 C8.06060606,12.0243649 8.63042547,11.4545455 9.33333333,11.4545455 C9.97322012,11.4545455 10.5028134,11.926768 10.5926339,12.5417337 C11.3683714,12.0366391 12.0366391,11.3683714 12.5417337,10.5926339 L12.5417337,10.5926339 C11.926768,10.5028134 11.4545455,9.97322012 11.4545455,9.33333333 C11.4545455,8.63042547 12.0243649,8.06060606 12.7272727,8.06060606 C13.0022742,8.06060606 13.2569046,8.14782493 13.4650108,8.29610954 C13.5289978,7.94676022 13.5625,7.58914893 13.5625,7.2262931 C13.5625,6.71299974 13.5102926,6.21592104 13.4117477,5.73985483 L13.4117477,5.73985483 C13.214101,5.86617563 12.9792374,5.93939394 12.7272727,5.93939394 C12.0243649,5.93939394 11.4545455,5.36957453 11.4545455,4.66666667 C11.4545455,4.05023047 11.8927902,3.53615182 12.4747133,3.41899707 C11.977487,2.6368413 11.3328489,1.97625671 10.5897179,1.47722845 L10.5897179,1.47722845 C10.4918889,2.08291251 9.96662735,2.54545455 9.33333333,2.54545455 C8.63042547,2.54545455 8.06060606,1.97563514 8.06060606,1.27272727 C8.06060606,0.99794028 8.14768894,0.743492583 8.2957627,0.535476177 C7.94652353,0.470980031 7.58902885,0.4375 7.2262931,0.4375 C6.71321675,0.4375 6.21634134,0.489663228 5.74045864,0.589197939 C5.86640892,0.786647986 5.93939394,1.02116435 5.93939394,1.27272727 C5.93939394,1.97563514 5.36957453,2.54545455 4.66666667,2.54545455 C4.05743524,2.54545455 3.54818266,2.11739416 3.4232671,1.54563154 L3.4232671,1.54563154 C2.67449097,2.03693851 2.03693851,2.67449097 1.54563154,3.4232671 C2.11739416,3.54818266 2.54545455,4.05743524 2.54545455,4.66666667 C2.54545455,5.36957453 1.97563514,5.93939394 1.27272727,5.93939394 C1.02116435,5.93939394 0.786647986,5.86640892 0.589197939,5.74045864 L0.589197939,5.74045864 Z M7,9.75757576 C8.52296704,9.75757576 9.75757576,8.52296704 9.75757576,7 C9.75757576,5.47703296 8.52296704,4.24242424 7,4.24242424 C5.47703296,4.24242424 4.24242424,5.47703296 4.24242424,7 C4.24242424,8.52296704 5.47703296,9.75757576 7,9.75757576 Z" sketch:type="MSShapeGroup"></path>
        </g>
    </g>
</svg>