<?xml version="1.0" encoding="UTF-8" standalone="no"?>
<svg width="42px" height="28px" viewBox="0 0 42 28" version="1.1" xmlns="http://www.w3.org/2000/svg" xmlns:xlink="http://www.w3.org/1999/xlink" xmlns:sketch="http://www.bohemiancoding.com/sketch/ns">
    <!-- Generator: Sketch 3.0.3 (7892) - http://www.bohemiancoding.com/sketch -->
    <title>stick</title>
    <desc>Created with Sketch.</desc>
    <defs></defs>
    <g id="Page-2" stroke="none" stroke-width="1" fill="none" fill-rule="evenodd" sketch:type="MSPage">
        <g id="Star-1-+-stick" sketch:type="MSLayerGroup" fill="#FFFFFF">
            <path d="M21,3.13882037 C17.2186055,2.62201325 16.9121737,-0.14851884 12.3022043,0.00623987014 C4.17073158,0.274653599 -5.6852565,25.045215 4.04483739,27.903235 C9.0223974,29.0278429 12.4675423,19.9786229 21,19.9786223 L21,3.13882037 Z M21,3.13882037 C24.7813945,2.62201325 25.0878263,-0.14851884 29.6977957,0.00623987014 C37.8292684,0.274653599 47.6852565,25.045215 37.9551626,27.903235 C32.9776026,29.0278429 29.5324577,19.9786229 21,19.9786223 L21,3.13882037 Z M13,5 C9.6862915,5 7,7.69303423 7,11 C7,14.3137085 9.69303423,17 13,17 C16.3137085,17 19,14.3069658 19,11 C19,7.6862915 16.3069658,5 13,5 Z M13,14 C14.6568542,14 16,12.6568542 16,11 C16,9.34314575 14.6568542,8 13,8 C11.3431458,8 10,9.34314575 10,11 C10,12.6568542 11.3431458,14 13,14 Z M25,13 C26.1045695,13 27,12.1045695 27,11 C27,9.8954305 26.1045695,9 25,9 C23.8954305,9 23,9.8954305 23,11 C23,12.1045695 23.8954305,13 25,13 Z M29,17 C30.1045695,17 31,16.1045695 31,15 C31,13.8954305 30.1045695,13 29,13 C27.8954305,13 27,13.8954305 27,15 C27,16.1045695 27.8954305,17 29,17 Z M33,13 C34.1045695,13 35,12.1045695 35,11 C35,9.8954305 34.1045695,9 33,9 C31.8954305,9 31,9.8954305 31,11 C31,12.1045695 31.8954305,13 33,13 Z M29,9 C30.1045695,9 31,8.1045695 31,7 C31,5.8954305 30.1045695,5 29,5 C27.8954305,5 27,5.8954305 27,7 C27,8.1045695 27.8954305,9 29,9 Z" id="Path" sketch:type="MSShapeGroup"></path>
        </g>
    </g>
</svg>